<?xml version="1.0" encoding="UTF-8"?>
<svg xmlns="http://www.w3.org/2000/svg" xmlns:xlink="http://www.w3.org/1999/xlink" width="224pt" height="55pt" viewBox="0 0 224 55" version="1.1">
<g id="surface1">
<path style=" stroke:none;fill-rule:nonzero;fill:rgb(9.803922%,12.941176%,12.941176%);fill-opacity:1;" d="M -2.671875 55.246094 L 52.519531 55.246094 L 52.519531 0.0585938 L -2.671875 0.0585938 Z M -2.671875 55.246094 "/>
<path style=" stroke:none;fill-rule:nonzero;fill:rgb(8.235294%,10.588235%,10.588235%);fill-opacity:1;" d="M 7.589844 55.246094 L -2.671875 55.246094 L -2.671875 24.996094 L 9.046875 17.738281 L 14.199219 37.21875 L 41.410156 35.589844 L 7.589844 55.246094 "/>
<path style=" stroke:none;fill-rule:nonzero;fill:rgb(0%,67.843137%,93.72549%);fill-opacity:1;" d="M 64.367188 13.25 L 66.261719 13.25 C 68.09375 13.25 69.4375 12.933594 70.292969 12.292969 C 71.148438 11.65625 71.578125 10.660156 71.578125 9.308594 C 71.578125 8.054688 71.195312 7.117188 70.429688 6.5 C 69.664062 5.882812 68.46875 5.574219 66.84375 5.574219 L 64.367188 5.574219 Z M 75.253906 9.1875 C 75.253906 11.46875 74.507812 13.214844 73.011719 14.429688 C 71.519531 15.644531 69.394531 16.253906 66.636719 16.253906 L 64.367188 16.253906 L 64.367188 24.421875 L 60.796875 24.421875 L 60.796875 2.589844 L 67.085938 2.589844 C 69.8125 2.589844 71.855469 3.144531 73.214844 4.261719 C 74.574219 5.375 75.253906 7.019531 75.253906 9.1875 M 90.035156 15.28125 L 87.992188 9.335938 C 87.839844 8.941406 87.632812 8.3125 87.371094 7.457031 C 87.109375 6.601562 86.925781 5.972656 86.824219 5.574219 C 86.558594 6.800781 86.164062 8.136719 85.644531 9.589844 L 83.675781 15.28125 Z M 93.15625 24.421875 L 90.976562 18.355469 L 82.628906 18.355469 L 80.492188 24.421875 L 76.730469 24.421875 L 84.898438 2.496094 L 88.78125 2.496094 L 96.953125 24.421875 L 93.15625 24.421875 M 103.402344 12.742188 L 105.882812 12.742188 C 107.542969 12.742188 108.75 12.433594 109.496094 11.816406 C 110.242188 11.199219 110.617188 10.285156 110.617188 9.070312 C 110.617188 7.835938 110.210938 6.949219 109.40625 6.410156 C 108.597656 5.871094 107.382812 5.605469 105.761719 5.605469 L 103.402344 5.605469 Z M 103.402344 15.699219 L 103.402344 24.421875 L 99.832031 24.421875 L 99.832031 2.589844 L 106 2.585938 C 108.816406 2.585938 110.902344 3.113281 112.257812 4.171875 C 113.609375 5.226562 114.289062 6.820312 114.289062 8.949219 C 114.289062 11.667969 112.875 13.605469 110.046875 14.757812 L 116.214844 24.421875 L 112.152344 24.421875 L 106.925781 15.699219 L 103.402344 15.699219 M 126.921875 24.421875 L 123.351562 24.421875 L 123.351562 5.648438 L 116.929688 5.648438 L 116.929688 2.585938 L 133.34375 2.585938 L 133.34375 5.648438 L 126.921875 5.648438 L 126.921875 24.421875 M 149.277344 18.492188 C 149.277344 20.433594 148.578125 21.957031 147.171875 23.0625 C 145.769531 24.167969 143.832031 24.71875 141.363281 24.71875 C 138.894531 24.71875 136.875 24.335938 135.300781 23.570312 L 135.300781 20.195312 C 136.296875 20.660156 137.351562 21.03125 138.472656 21.300781 C 139.59375 21.566406 140.636719 21.703125 141.601562 21.703125 C 143.015625 21.703125 144.058594 21.433594 144.730469 20.894531 C 145.402344 20.359375 145.738281 19.636719 145.738281 18.730469 C 145.738281 17.914062 145.429688 17.222656 144.8125 16.65625 C 144.195312 16.085938 142.921875 15.414062 140.988281 14.636719 C 139 13.832031 137.59375 12.910156 136.777344 11.875 C 135.960938 10.839844 135.554688 9.597656 135.554688 8.144531 C 135.554688 6.320312 136.203125 4.886719 137.496094 3.839844 C 138.789062 2.796875 140.527344 2.273438 142.707031 2.273438 C 144.796875 2.273438 146.878906 2.730469 148.949219 3.648438 L 147.8125 6.558594 C 145.875 5.742188 144.140625 5.335938 142.617188 5.335938 C 141.460938 5.335938 140.585938 5.585938 139.988281 6.089844 C 139.390625 6.589844 139.09375 7.257812 139.09375 8.082031 C 139.09375 8.652344 139.210938 9.136719 139.453125 9.539062 C 139.691406 9.941406 140.085938 10.324219 140.632812 10.679688 C 141.179688 11.039062 142.164062 11.511719 143.589844 12.097656 C 145.191406 12.765625 146.367188 13.390625 147.113281 13.964844 C 147.859375 14.542969 148.40625 15.195312 148.753906 15.921875 C 149.101562 16.648438 149.277344 17.503906 149.277344 18.492188 "/>
<path style=" stroke:none;fill-rule:nonzero;fill:rgb(9.803922%,12.941176%,12.941176%);fill-opacity:1;" d="M 60.796875 50.636719 L 64.367188 50.636719 L 64.367188 28.800781 L 60.796875 28.800781 Z M 88.320312 50.636719 L 83.945312 50.636719 L 73.207031 33.238281 L 73.085938 33.238281 L 73.160156 34.207031 C 73.300781 36.058594 73.371094 37.753906 73.371094 39.285156 L 73.371094 50.636719 L 70.128906 50.636719 L 70.128906 28.800781 L 74.460938 28.800781 L 85.167969 46.109375 L 85.257812 46.109375 C 85.238281 45.882812 85.199219 45.046875 85.136719 43.609375 C 85.078125 42.171875 85.046875 41.046875 85.046875 40.242188 L 85.046875 28.800781 L 88.320312 28.800781 L 88.320312 50.636719 M 109.386719 50.636719 L 103.054688 32.402344 L 102.933594 32.402344 C 103.105469 35.109375 103.1875 37.648438 103.1875 40.019531 L 103.1875 50.636719 L 99.949219 50.636719 L 99.949219 28.800781 L 104.980469 28.800781 L 111.042969 46.167969 L 111.132812 46.167969 L 117.375 28.800781 L 122.421875 28.800781 L 122.421875 50.636719 L 118.988281 50.636719 L 118.988281 39.839844 C 118.988281 38.753906 119.015625 37.339844 119.070312 35.597656 C 119.125 33.855469 119.171875 32.800781 119.210938 32.429688 L 119.09375 32.429688 L 112.539062 50.636719 L 109.386719 50.636719 M 130.890625 39.6875 C 130.890625 42.375 131.433594 44.414062 132.519531 45.804688 C 133.601562 47.191406 135.210938 47.886719 137.34375 47.886719 C 139.460938 47.886719 141.0625 47.199219 142.144531 45.824219 C 143.222656 44.453125 143.765625 42.40625 143.765625 39.6875 C 143.765625 37.011719 143.226562 34.980469 142.15625 33.59375 C 141.085938 32.210938 139.492188 31.519531 137.371094 31.519531 C 135.230469 31.519531 133.617188 32.210938 132.527344 33.59375 C 131.4375 34.980469 130.890625 37.011719 130.890625 39.6875 Z M 147.554688 39.6875 C 147.554688 43.242188 146.667969 46.003906 144.890625 47.976562 C 143.113281 49.949219 140.597656 50.933594 137.34375 50.933594 C 134.046875 50.933594 131.515625 49.957031 129.75 48 C 127.980469 46.042969 127.097656 43.261719 127.097656 39.660156 C 127.097656 36.054688 127.984375 33.289062 129.761719 31.355469 C 131.539062 29.425781 134.078125 28.457031 137.371094 28.457031 C 140.617188 28.457031 143.125 29.4375 144.898438 31.398438 C 146.671875 33.363281 147.554688 36.125 147.554688 39.6875 M 159.789062 50.636719 L 156.21875 50.636719 L 156.21875 31.863281 L 149.796875 31.863281 L 149.796875 28.800781 L 166.207031 28.800781 L 166.207031 31.863281 L 159.789062 31.863281 L 159.789062 50.636719 M 169.554688 50.636719 L 169.554688 28.800781 L 173.121094 28.800781 L 173.121094 50.632812 L 169.554688 50.636719 M 181.605469 39.6875 C 181.605469 42.375 182.148438 44.414062 183.234375 45.804688 C 184.316406 47.191406 185.925781 47.886719 188.054688 47.886719 C 190.175781 47.886719 191.777344 47.199219 192.859375 45.824219 C 193.9375 44.449219 194.476562 42.40625 194.476562 39.6875 C 194.476562 37.011719 193.941406 34.980469 192.871094 33.59375 C 191.800781 32.210938 190.207031 31.519531 188.085938 31.519531 C 185.945312 31.519531 184.328125 32.210938 183.242188 33.59375 C 182.148438 34.980469 181.605469 37.011719 181.605469 39.6875 Z M 198.269531 39.6875 C 198.269531 43.242188 197.382812 46.003906 195.605469 47.976562 C 193.828125 49.945312 191.3125 50.933594 188.054688 50.933594 C 184.761719 50.933594 182.230469 49.957031 180.460938 47.996094 C 178.695312 46.042969 177.8125 43.261719 177.8125 39.660156 C 177.8125 36.054688 178.699219 33.285156 180.476562 31.355469 C 182.253906 29.425781 184.789062 28.457031 188.085938 28.457031 C 191.332031 28.457031 193.839844 29.4375 195.613281 31.398438 C 197.382812 33.363281 198.269531 36.125 198.269531 39.6875 M 221.148438 50.632812 L 216.773438 50.632812 L 206.035156 33.238281 L 205.917969 33.238281 L 205.992188 34.207031 C 206.132812 36.058594 206.199219 37.75 206.199219 39.285156 L 206.199219 50.632812 L 202.960938 50.632812 L 202.960938 28.800781 L 207.289062 28.800781 L 218 46.109375 L 218.085938 46.109375 C 218.066406 45.878906 218.027344 45.046875 217.96875 43.605469 C 217.90625 42.167969 217.878906 41.046875 217.878906 40.238281 L 217.878906 28.800781 L 221.148438 28.800781 L 221.148438 50.632812 "/>
<path style=" stroke:none;fill-rule:nonzero;fill:rgb(0%,67.843137%,93.72549%);fill-opacity:1;" d="M 9.722656 16.820312 L 17.757812 21.460938 L 25.328125 17.097656 L 32.898438 21.464844 L 40.9375 16.820312 L 25.328125 7.820312 L 9.722656 16.820312 "/>
<path style=" stroke:none;fill-rule:nonzero;fill:rgb(100%,100%,100%);fill-opacity:1;" d="M 24.84375 44.609375 L 24.847656 35.328125 L 17.28125 30.957031 L 17.28125 22.214844 L 9.242188 17.578125 L 9.25 35.59375 L 24.84375 44.609375 M 41.417969 17.578125 L 33.382812 22.214844 L 33.375 30.953125 L 25.808594 35.324219 L 25.8125 44.605469 L 41.410156 35.589844 L 41.417969 17.578125 M 36.570312 46.492188 L 36.976562 46.492188 C 37.359375 46.492188 37.640625 46.417969 37.832031 46.265625 C 38.019531 46.117188 38.113281 45.898438 38.113281 45.613281 C 38.113281 45.320312 38.035156 45.109375 37.875 44.96875 C 37.71875 44.832031 37.46875 44.761719 37.132812 44.761719 L 36.570312 44.761719 Z M 39.363281 45.566406 C 39.363281 46.195312 39.164062 46.675781 38.773438 47.007812 C 38.382812 47.339844 37.824219 47.503906 37.101562 47.503906 L 36.570312 47.503906 L 36.570312 49.578125 L 35.335938 49.578125 L 35.335938 43.75 L 37.195312 43.75 C 37.902344 43.75 38.441406 43.902344 38.808594 44.207031 C 39.179688 44.511719 39.363281 44.964844 39.363281 45.566406 M 39.753906 49.578125 L 39.753906 43.75 L 40.992188 43.75 L 40.992188 49.578125 L 39.753906 49.578125 M 44.0625 49.578125 L 42.660156 45.003906 L 42.625 45.003906 C 42.671875 45.933594 42.699219 46.554688 42.699219 46.867188 L 42.699219 49.578125 L 41.59375 49.578125 L 41.59375 43.75 L 43.277344 43.75 L 44.65625 48.207031 L 44.679688 48.207031 L 46.144531 43.75 L 47.828125 43.75 L 47.828125 49.578125 L 46.675781 49.578125 L 46.675781 46.820312 C 46.675781 46.691406 46.675781 46.539062 46.679688 46.371094 C 46.683594 46.199219 46.703125 45.746094 46.734375 45.011719 L 46.699219 45.011719 L 45.195312 49.578125 L 44.0625 49.578125 "/>
</g>
</svg>
